<svg version="1.1" xmlns="http://www.w3.org/2000/svg" xmlns:xlink="http://www.w3.org/1999/xlink" width="796" height="836"><defs/><g><text fill="#eeeeee" stroke="none" font-family="Arial" font-size="24px" font-style="normal" font-weight="normal" text-decoration="none" x="0" y="0">UNREGISTERED</text><text fill="#eeeeee" stroke="none" font-family="Arial" font-size="24px" font-style="normal" font-weight="normal" text-decoration="none" x="0" y="30">UNREGISTERED</text><text fill="#eeeeee" stroke="none" font-family="Arial" font-size="24px" font-style="normal" font-weight="normal" text-decoration="none" x="0" y="60">UNREGISTERED</text><text fill="#eeeeee" stroke="none" font-family="Arial" font-size="24px" font-style="normal" font-weight="normal" text-decoration="none" x="0" y="90">UNREGISTERED</text><text fill="#eeeeee" stroke="none" font-family="Arial" font-size="24px" font-style="normal" font-weight="normal" text-decoration="none" x="0" y="120">UNREGISTERED</text><text fill="#eeeeee" stroke="none" font-family="Arial" font-size="24px" font-style="normal" font-weight="normal" text-decoration="none" x="0" y="150">UNREGISTERED</text><text fill="#eeeeee" stroke="none" font-family="Arial" font-size="24px" font-style="normal" font-weight="normal" text-decoration="none" x="0" y="180">UNREGISTERED</text><text fill="#eeeeee" stroke="none" font-family="Arial" font-size="24px" font-style="normal" font-weight="normal" text-decoration="none" x="0" y="210">UNREGISTERED</text><text fill="#eeeeee" stroke="none" font-family="Arial" font-size="24px" font-style="normal" font-weight="normal" text-decoration="none" x="0" y="240">UNREGISTERED</text><text fill="#eeeeee" stroke="none" font-family="Arial" font-size="24px" font-style="normal" font-weight="normal" text-decoration="none" x="0" y="270">UNREGISTERED</text><text fill="#eeeeee" stroke="none" font-family="Arial" font-size="24px" font-style="normal" font-weight="normal" text-decoration="none" x="0" y="300">UNREGISTERED</text><text fill="#eeeeee" stroke="none" font-family="Arial" font-size="24px" font-style="normal" font-weight="normal" text-decoration="none" x="0" y="330">UNREGISTERED</text><text fill="#eeeeee" stroke="none" font-family="Arial" font-size="24px" font-style="normal" font-weight="normal" text-decoration="none" x="0" y="360">UNREGISTERED</text><text fill="#eeeeee" stroke="none" font-family="Arial" font-size="24px" font-style="normal" font-weight="normal" text-decoration="none" x="0" y="390">UNREGISTERED</text><text fill="#eeeeee" stroke="none" font-family="Arial" font-size="24px" font-style="normal" font-weight="normal" text-decoration="none" x="0" y="420">UNREGISTERED</text><text fill="#eeeeee" stroke="none" font-family="Arial" font-size="24px" font-style="normal" font-weight="normal" text-decoration="none" x="0" y="450">UNREGISTERED</text><text fill="#eeeeee" stroke="none" font-family="Arial" font-size="24px" font-style="normal" font-weight="normal" text-decoration="none" x="0" y="480">UNREGISTERED</text><text fill="#eeeeee" stroke="none" font-family="Arial" font-size="24px" font-style="normal" font-weight="normal" text-decoration="none" x="0" y="510">UNREGISTERED</text><text fill="#eeeeee" stroke="none" font-family="Arial" font-size="24px" font-style="normal" font-weight="normal" text-decoration="none" x="0" y="540">UNREGISTERED</text><text fill="#eeeeee" stroke="none" font-family="Arial" font-size="24px" font-style="normal" font-weight="normal" text-decoration="none" x="0" y="570">UNREGISTERED</text><text fill="#eeeeee" stroke="none" font-family="Arial" font-size="24px" font-style="normal" font-weight="normal" text-decoration="none" x="0" y="600">UNREGISTERED</text><text fill="#eeeeee" stroke="none" font-family="Arial" font-size="24px" font-style="normal" font-weight="normal" text-decoration="none" x="0" y="630">UNREGISTERED</text><text fill="#eeeeee" stroke="none" font-family="Arial" font-size="24px" font-style="normal" font-weight="normal" text-decoration="none" x="0" y="660">UNREGISTERED</text><text fill="#eeeeee" stroke="none" font-family="Arial" font-size="24px" font-style="normal" font-weight="normal" text-decoration="none" x="0" y="690">UNREGISTERED</text><text fill="#eeeeee" stroke="none" font-family="Arial" font-size="24px" font-style="normal" font-weight="normal" text-decoration="none" x="0" y="720">UNREGISTERED</text><text fill="#eeeeee" stroke="none" font-family="Arial" font-size="24px" font-style="normal" font-weight="normal" text-decoration="none" x="0" y="750">UNREGISTERED</text><text fill="#eeeeee" stroke="none" font-family="Arial" font-size="24px" font-style="normal" font-weight="normal" text-decoration="none" x="0" y="780">UNREGISTERED</text><text fill="#eeeeee" stroke="none" font-family="Arial" font-size="24px" font-style="normal" font-weight="normal" text-decoration="none" x="0" y="810">UNREGISTERED</text><text fill="#eeeeee" stroke="none" font-family="Arial" font-size="24px" font-style="normal" font-weight="normal" text-decoration="none" x="200" y="0">UNREGISTERED</text><text fill="#eeeeee" stroke="none" font-family="Arial" font-size="24px" font-style="normal" font-weight="normal" text-decoration="none" x="200" y="30">UNREGISTERED</text><text fill="#eeeeee" stroke="none" font-family="Arial" font-size="24px" font-style="normal" font-weight="normal" text-decoration="none" x="200" y="60">UNREGISTERED</text><text fill="#eeeeee" stroke="none" font-family="Arial" font-size="24px" font-style="normal" font-weight="normal" text-decoration="none" x="200" y="90">UNREGISTERED</text><text fill="#eeeeee" stroke="none" font-family="Arial" font-size="24px" font-style="normal" font-weight="normal" text-decoration="none" x="200" y="120">UNREGISTERED</text><text fill="#eeeeee" stroke="none" font-family="Arial" font-size="24px" font-style="normal" font-weight="normal" text-decoration="none" x="200" y="150">UNREGISTERED</text><text fill="#eeeeee" stroke="none" font-family="Arial" font-size="24px" font-style="normal" font-weight="normal" text-decoration="none" x="200" y="180">UNREGISTERED</text><text fill="#eeeeee" stroke="none" font-family="Arial" font-size="24px" font-style="normal" font-weight="normal" text-decoration="none" x="200" y="210">UNREGISTERED</text><text fill="#eeeeee" stroke="none" font-family="Arial" font-size="24px" font-style="normal" font-weight="normal" text-decoration="none" x="200" y="240">UNREGISTERED</text><text fill="#eeeeee" stroke="none" font-family="Arial" font-size="24px" font-style="normal" font-weight="normal" text-decoration="none" x="200" y="270">UNREGISTERED</text><text fill="#eeeeee" stroke="none" font-family="Arial" font-size="24px" font-style="normal" font-weight="normal" text-decoration="none" x="200" y="300">UNREGISTERED</text><text fill="#eeeeee" stroke="none" font-family="Arial" font-size="24px" font-style="normal" font-weight="normal" text-decoration="none" x="200" y="330">UNREGISTERED</text><text fill="#eeeeee" stroke="none" font-family="Arial" font-size="24px" font-style="normal" font-weight="normal" text-decoration="none" x="200" y="360">UNREGISTERED</text><text fill="#eeeeee" stroke="none" font-family="Arial" font-size="24px" font-style="normal" font-weight="normal" text-decoration="none" x="200" y="390">UNREGISTERED</text><text fill="#eeeeee" stroke="none" font-family="Arial" font-size="24px" font-style="normal" font-weight="normal" text-decoration="none" x="200" y="420">UNREGISTERED</text><text fill="#eeeeee" stroke="none" font-family="Arial" font-size="24px" font-style="normal" font-weight="normal" text-decoration="none" x="200" y="450">UNREGISTERED</text><text fill="#eeeeee" stroke="none" font-family="Arial" font-size="24px" font-style="normal" font-weight="normal" text-decoration="none" x="200" y="480">UNREGISTERED</text><text fill="#eeeeee" stroke="none" font-family="Arial" font-size="24px" font-style="normal" font-weight="normal" text-decoration="none" x="200" y="510">UNREGISTERED</text><text fill="#eeeeee" stroke="none" font-family="Arial" font-size="24px" font-style="normal" font-weight="normal" text-decoration="none" x="200" y="540">UNREGISTERED</text><text fill="#eeeeee" stroke="none" font-family="Arial" font-size="24px" font-style="normal" font-weight="normal" text-decoration="none" x="200" y="570">UNREGISTERED</text><text fill="#eeeeee" stroke="none" font-family="Arial" font-size="24px" font-style="normal" font-weight="normal" text-decoration="none" x="200" y="600">UNREGISTERED</text><text fill="#eeeeee" stroke="none" font-family="Arial" font-size="24px" font-style="normal" font-weight="normal" text-decoration="none" x="200" y="630">UNREGISTERED</text><text fill="#eeeeee" stroke="none" font-family="Arial" font-size="24px" font-style="normal" font-weight="normal" text-decoration="none" x="200" y="660">UNREGISTERED</text><text fill="#eeeeee" stroke="none" font-family="Arial" font-size="24px" font-style="normal" font-weight="normal" text-decoration="none" x="200" y="690">UNREGISTERED</text><text fill="#eeeeee" stroke="none" font-family="Arial" font-size="24px" font-style="normal" font-weight="normal" text-decoration="none" x="200" y="720">UNREGISTERED</text><text fill="#eeeeee" stroke="none" font-family="Arial" font-size="24px" font-style="normal" font-weight="normal" text-decoration="none" x="200" y="750">UNREGISTERED</text><text fill="#eeeeee" stroke="none" font-family="Arial" font-size="24px" font-style="normal" font-weight="normal" text-decoration="none" x="200" y="780">UNREGISTERED</text><text fill="#eeeeee" stroke="none" font-family="Arial" font-size="24px" font-style="normal" font-weight="normal" text-decoration="none" x="200" y="810">UNREGISTERED</text><text fill="#eeeeee" stroke="none" font-family="Arial" font-size="24px" font-style="normal" font-weight="normal" text-decoration="none" x="400" y="0">UNREGISTERED</text><text fill="#eeeeee" stroke="none" font-family="Arial" font-size="24px" font-style="normal" font-weight="normal" text-decoration="none" x="400" y="30">UNREGISTERED</text><text fill="#eeeeee" stroke="none" font-family="Arial" font-size="24px" font-style="normal" font-weight="normal" text-decoration="none" x="400" y="60">UNREGISTERED</text><text fill="#eeeeee" stroke="none" font-family="Arial" font-size="24px" font-style="normal" font-weight="normal" text-decoration="none" x="400" y="90">UNREGISTERED</text><text fill="#eeeeee" stroke="none" font-family="Arial" font-size="24px" font-style="normal" font-weight="normal" text-decoration="none" x="400" y="120">UNREGISTERED</text><text fill="#eeeeee" stroke="none" font-family="Arial" font-size="24px" font-style="normal" font-weight="normal" text-decoration="none" x="400" y="150">UNREGISTERED</text><text fill="#eeeeee" stroke="none" font-family="Arial" font-size="24px" font-style="normal" font-weight="normal" text-decoration="none" x="400" y="180">UNREGISTERED</text><text fill="#eeeeee" stroke="none" font-family="Arial" font-size="24px" font-style="normal" font-weight="normal" text-decoration="none" x="400" y="210">UNREGISTERED</text><text fill="#eeeeee" stroke="none" font-family="Arial" font-size="24px" font-style="normal" font-weight="normal" text-decoration="none" x="400" y="240">UNREGISTERED</text><text fill="#eeeeee" stroke="none" font-family="Arial" font-size="24px" font-style="normal" font-weight="normal" text-decoration="none" x="400" y="270">UNREGISTERED</text><text fill="#eeeeee" stroke="none" font-family="Arial" font-size="24px" font-style="normal" font-weight="normal" text-decoration="none" x="400" y="300">UNREGISTERED</text><text fill="#eeeeee" stroke="none" font-family="Arial" font-size="24px" font-style="normal" font-weight="normal" text-decoration="none" x="400" y="330">UNREGISTERED</text><text fill="#eeeeee" stroke="none" font-family="Arial" font-size="24px" font-style="normal" font-weight="normal" text-decoration="none" x="400" y="360">UNREGISTERED</text><text fill="#eeeeee" stroke="none" font-family="Arial" font-size="24px" font-style="normal" font-weight="normal" text-decoration="none" x="400" y="390">UNREGISTERED</text><text fill="#eeeeee" stroke="none" font-family="Arial" font-size="24px" font-style="normal" font-weight="normal" text-decoration="none" x="400" y="420">UNREGISTERED</text><text fill="#eeeeee" stroke="none" font-family="Arial" font-size="24px" font-style="normal" font-weight="normal" text-decoration="none" x="400" y="450">UNREGISTERED</text><text fill="#eeeeee" stroke="none" font-family="Arial" font-size="24px" font-style="normal" font-weight="normal" text-decoration="none" x="400" y="480">UNREGISTERED</text><text fill="#eeeeee" stroke="none" font-family="Arial" font-size="24px" font-style="normal" font-weight="normal" text-decoration="none" x="400" y="510">UNREGISTERED</text><text fill="#eeeeee" stroke="none" font-family="Arial" font-size="24px" font-style="normal" font-weight="normal" text-decoration="none" x="400" y="540">UNREGISTERED</text><text fill="#eeeeee" stroke="none" font-family="Arial" font-size="24px" font-style="normal" font-weight="normal" text-decoration="none" x="400" y="570">UNREGISTERED</text><text fill="#eeeeee" stroke="none" font-family="Arial" font-size="24px" font-style="normal" font-weight="normal" text-decoration="none" x="400" y="600">UNREGISTERED</text><text fill="#eeeeee" stroke="none" font-family="Arial" font-size="24px" font-style="normal" font-weight="normal" text-decoration="none" x="400" y="630">UNREGISTERED</text><text fill="#eeeeee" stroke="none" font-family="Arial" font-size="24px" font-style="normal" font-weight="normal" text-decoration="none" x="400" y="660">UNREGISTERED</text><text fill="#eeeeee" stroke="none" font-family="Arial" font-size="24px" font-style="normal" font-weight="normal" text-decoration="none" x="400" y="690">UNREGISTERED</text><text fill="#eeeeee" stroke="none" font-family="Arial" font-size="24px" font-style="normal" font-weight="normal" text-decoration="none" x="400" y="720">UNREGISTERED</text><text fill="#eeeeee" stroke="none" font-family="Arial" font-size="24px" font-style="normal" font-weight="normal" text-decoration="none" x="400" y="750">UNREGISTERED</text><text fill="#eeeeee" stroke="none" font-family="Arial" font-size="24px" font-style="normal" font-weight="normal" text-decoration="none" x="400" y="780">UNREGISTERED</text><text fill="#eeeeee" stroke="none" font-family="Arial" font-size="24px" font-style="normal" font-weight="normal" text-decoration="none" x="400" y="810">UNREGISTERED</text><text fill="#eeeeee" stroke="none" font-family="Arial" font-size="24px" font-style="normal" font-weight="normal" text-decoration="none" x="600" y="0">UNREGISTERED</text><text fill="#eeeeee" stroke="none" font-family="Arial" font-size="24px" font-style="normal" font-weight="normal" text-decoration="none" x="600" y="30">UNREGISTERED</text><text fill="#eeeeee" stroke="none" font-family="Arial" font-size="24px" font-style="normal" font-weight="normal" text-decoration="none" x="600" y="60">UNREGISTERED</text><text fill="#eeeeee" stroke="none" font-family="Arial" font-size="24px" font-style="normal" font-weight="normal" text-decoration="none" x="600" y="90">UNREGISTERED</text><text fill="#eeeeee" stroke="none" font-family="Arial" font-size="24px" font-style="normal" font-weight="normal" text-decoration="none" x="600" y="120">UNREGISTERED</text><text fill="#eeeeee" stroke="none" font-family="Arial" font-size="24px" font-style="normal" font-weight="normal" text-decoration="none" x="600" y="150">UNREGISTERED</text><text fill="#eeeeee" stroke="none" font-family="Arial" font-size="24px" font-style="normal" font-weight="normal" text-decoration="none" x="600" y="180">UNREGISTERED</text><text fill="#eeeeee" stroke="none" font-family="Arial" font-size="24px" font-style="normal" font-weight="normal" text-decoration="none" x="600" y="210">UNREGISTERED</text><text fill="#eeeeee" stroke="none" font-family="Arial" font-size="24px" font-style="normal" font-weight="normal" text-decoration="none" x="600" y="240">UNREGISTERED</text><text fill="#eeeeee" stroke="none" font-family="Arial" font-size="24px" font-style="normal" font-weight="normal" text-decoration="none" x="600" y="270">UNREGISTERED</text><text fill="#eeeeee" stroke="none" font-family="Arial" font-size="24px" font-style="normal" font-weight="normal" text-decoration="none" x="600" y="300">UNREGISTERED</text><text fill="#eeeeee" stroke="none" font-family="Arial" font-size="24px" font-style="normal" font-weight="normal" text-decoration="none" x="600" y="330">UNREGISTERED</text><text fill="#eeeeee" stroke="none" font-family="Arial" font-size="24px" font-style="normal" font-weight="normal" text-decoration="none" x="600" y="360">UNREGISTERED</text><text fill="#eeeeee" stroke="none" font-family="Arial" font-size="24px" font-style="normal" font-weight="normal" text-decoration="none" x="600" y="390">UNREGISTERED</text><text fill="#eeeeee" stroke="none" font-family="Arial" font-size="24px" font-style="normal" font-weight="normal" text-decoration="none" x="600" y="420">UNREGISTERED</text><text fill="#eeeeee" stroke="none" font-family="Arial" font-size="24px" font-style="normal" font-weight="normal" text-decoration="none" x="600" y="450">UNREGISTERED</text><text fill="#eeeeee" stroke="none" font-family="Arial" font-size="24px" font-style="normal" font-weight="normal" text-decoration="none" x="600" y="480">UNREGISTERED</text><text fill="#eeeeee" stroke="none" font-family="Arial" font-size="24px" font-style="normal" font-weight="normal" text-decoration="none" x="600" y="510">UNREGISTERED</text><text fill="#eeeeee" stroke="none" font-family="Arial" font-size="24px" font-style="normal" font-weight="normal" text-decoration="none" x="600" y="540">UNREGISTERED</text><text fill="#eeeeee" stroke="none" font-family="Arial" font-size="24px" font-style="normal" font-weight="normal" text-decoration="none" x="600" y="570">UNREGISTERED</text><text fill="#eeeeee" stroke="none" font-family="Arial" font-size="24px" font-style="normal" font-weight="normal" text-decoration="none" x="600" y="600">UNREGISTERED</text><text fill="#eeeeee" stroke="none" font-family="Arial" font-size="24px" font-style="normal" font-weight="normal" text-decoration="none" x="600" y="630">UNREGISTERED</text><text fill="#eeeeee" stroke="none" font-family="Arial" font-size="24px" font-style="normal" font-weight="normal" text-decoration="none" x="600" y="660">UNREGISTERED</text><text fill="#eeeeee" stroke="none" font-family="Arial" font-size="24px" font-style="normal" font-weight="normal" text-decoration="none" x="600" y="690">UNREGISTERED</text><text fill="#eeeeee" stroke="none" font-family="Arial" font-size="24px" font-style="normal" font-weight="normal" text-decoration="none" x="600" y="720">UNREGISTERED</text><text fill="#eeeeee" stroke="none" font-family="Arial" font-size="24px" font-style="normal" font-weight="normal" text-decoration="none" x="600" y="750">UNREGISTERED</text><text fill="#eeeeee" stroke="none" font-family="Arial" font-size="24px" font-style="normal" font-weight="normal" text-decoration="none" x="600" y="780">UNREGISTERED</text><text fill="#eeeeee" stroke="none" font-family="Arial" font-size="24px" font-style="normal" font-weight="normal" text-decoration="none" x="600" y="810">UNREGISTERED</text><g transform="translate(-14,-22) scale(1,1)"><rect fill="#C0C0C0" stroke="none" x="167" y="39" width="640" height="816" opacity="0.2"/></g><g transform="translate(-14,-22) scale(1,1)"><rect fill="#ffffff" stroke="none" x="160" y="32" width="640" height="816"/></g><g transform="translate(-14,-22) scale(1,1)"><path fill="none" stroke="#000000" d="M 160 32 L 800 32 L 800 848 L 160 848 L 160 32 Z Z" stroke-miterlimit="10"/></g><g transform="translate(-14,-22) scale(1,1)"><g><path fill="none" stroke="none"/><text fill="#000000" stroke="none" font-family="Arial" font-size="13px" font-style="normal" font-weight="bold" text-decoration="none" x="456.275634765625" y="50">Takwira</text></g></g><g transform="translate(-14,-22) scale(1,1)"><path fill="#ffffff" stroke="none" d="M 66.05070774147727 273.68 C 66.05070774147727 268.886167936 69.93655006642273 265 74.72998046875 265 C 79.52341087107727 265 83.40925319602273 268.886167936 83.40925319602273 273.68 C 83.40925319602273 278.473832064 79.52341087107727 282.36 74.72998046875 282.36 C 69.93655006642273 282.36 66.05070774147727 278.473832064 66.05070774147727 273.68 Z"/></g><g transform="translate(-14,-22) scale(1,1)"><path fill="none" stroke="#000000" d="M 66.05070774147727 273.68 C 66.05070774147727 268.886167936 69.93655006642273 265 74.72998046875 265 C 79.52341087107727 265 83.40925319602273 268.886167936 83.40925319602273 273.68 C 83.40925319602273 278.473832064 79.52341087107727 282.36 74.72998046875 282.36 C 69.93655006642273 282.36 66.05070774147727 278.473832064 66.05070774147727 273.68 Z" stroke-miterlimit="10"/></g><g transform="translate(-14,-22) scale(1,1)"><path fill="none" stroke="#000000" d="M 74.72998046875 282.36 L 74.72998046875 299.64" stroke-miterlimit="10"/></g><g transform="translate(-14,-22) scale(1,1)"><path fill="none" stroke="#000000" d="M 65.54016228693182 288.84 L 83.91979865056818 288.84" stroke-miterlimit="10"/></g><g transform="translate(-14,-22) scale(1,1)"><path fill="none" stroke="#000000" d="M 74.72998046875 299.64 L 61.966344105113635 317" stroke-miterlimit="10"/></g><g transform="translate(-14,-22) scale(1,1)"><path fill="none" stroke="#000000" d="M 74.72998046875 299.64 L 87.49361683238637 317" stroke-miterlimit="10"/></g><g transform="translate(-14,-22) scale(1,1)"><g><path fill="none" stroke="none"/><text fill="#000000" stroke="none" font-family="Arial" font-size="13px" font-style="normal" font-weight="bold" text-decoration="none" x="28.5" y="336">Administrateur</text></g></g><g transform="translate(-14,-22) scale(1,1)"><path fill="#ffffff" stroke="none" d="M 65.49162571022727 601.6800000000001 C 65.49162571022727 596.8861679360001 69.37746803517273 593 74.1708984375 593 C 78.96432883982727 593 82.85017116477273 596.8861679360001 82.85017116477273 601.6800000000001 C 82.85017116477273 606.473832064 78.96432883982727 610.36 74.1708984375 610.36 C 69.37746803517273 610.36 65.49162571022727 606.473832064 65.49162571022727 601.6800000000001 Z"/></g><g transform="translate(-14,-22) scale(1,1)"><path fill="none" stroke="#000000" d="M 65.49162571022727 601.6800000000001 C 65.49162571022727 596.8861679360001 69.37746803517273 593 74.1708984375 593 C 78.96432883982727 593 82.85017116477273 596.8861679360001 82.85017116477273 601.6800000000001 C 82.85017116477273 606.473832064 78.96432883982727 610.36 74.1708984375 610.36 C 69.37746803517273 610.36 65.49162571022727 606.473832064 65.49162571022727 601.6800000000001 Z" stroke-miterlimit="10"/></g><g transform="translate(-14,-22) scale(1,1)"><path fill="none" stroke="#000000" d="M 74.1708984375 610.36 L 74.1708984375 627.64" stroke-miterlimit="10"/></g><g transform="translate(-14,-22) scale(1,1)"><path fill="none" stroke="#000000" d="M 64.98108025568182 616.84 L 83.36071661931818 616.84" stroke-miterlimit="10"/></g><g transform="translate(-14,-22) scale(1,1)"><path fill="none" stroke="#000000" d="M 74.1708984375 627.64 L 61.407262073863635 645" stroke-miterlimit="10"/></g><g transform="translate(-14,-22) scale(1,1)"><path fill="none" stroke="#000000" d="M 74.1708984375 627.64 L 86.93453480113637 645" stroke-miterlimit="10"/></g><g transform="translate(-14,-22) scale(1,1)"><g><path fill="none" stroke="none"/><text fill="#000000" stroke="none" font-family="Arial" font-size="13px" font-style="normal" font-weight="bold" text-decoration="none" x="52.5" y="664">Joueur</text></g></g><g transform="translate(-14,-22) scale(1,1)"><path fill="#C0C0C0" stroke="none" d="M 335 115 C 335 99.5360256 371.4887888 87 416.5 87 C 461.5112112 87 498 99.5360256 498 115 C 498 130.4639744 461.5112112 143 416.5 143 C 371.4887888 143 335 130.4639744 335 115 Z" opacity="0.2"/></g><g transform="translate(-14,-22) scale(1,1)"><path fill="#ffffff" stroke="none" d="M 328 108 C 328 92.5360256 364.4887888 80 409.5 80 C 454.5112112 80 491 92.5360256 491 108 C 491 123.4639744 454.5112112 136 409.5 136 C 364.4887888 136 328 123.4639744 328 108 Z"/></g><g transform="translate(-14,-22) scale(1,1)"><path fill="none" stroke="#000000" d="M 328 108 C 328 92.5360256 364.4887888 80 409.5 80 C 454.5112112 80 491 92.5360256 491 108 C 491 123.4639744 454.5112112 136 409.5 136 C 364.4887888 136 328 123.4639744 328 108 Z" stroke-miterlimit="10"/></g><g transform="translate(-14,-22) scale(1,1)"><g><path fill="none" stroke="none"/><text fill="#000000" stroke="none" font-family="Arial" font-size="13px" font-style="normal" font-weight="bold" text-decoration="none" x="356.176513671875" y="113.5">Gestion Tournois</text></g></g><g transform="translate(-14,-22) scale(1,1)"><path fill="#C0C0C0" stroke="none" d="M 335 267 C 335 251.5360256 370.36950079999997 239 414 239 C 457.63049920000003 239 493 251.5360256 493 267 C 493 282.4639744 457.63049920000003 295 414 295 C 370.36950079999997 295 335 282.4639744 335 267 Z" opacity="0.2"/></g><g transform="translate(-14,-22) scale(1,1)"><path fill="#ffffff" stroke="none" d="M 328 260 C 328 244.5360256 363.36950079999997 232 407 232 C 450.63049920000003 232 486 244.5360256 486 260 C 486 275.4639744 450.63049920000003 288 407 288 C 363.36950079999997 288 328 275.4639744 328 260 Z"/></g><g transform="translate(-14,-22) scale(1,1)"><path fill="none" stroke="#000000" d="M 328 260 C 328 244.5360256 363.36950079999997 232 407 232 C 450.63049920000003 232 486 244.5360256 486 260 C 486 275.4639744 450.63049920000003 288 407 288 C 363.36950079999997 288 328 275.4639744 328 260 Z" stroke-miterlimit="10"/></g><g transform="translate(-14,-22) scale(1,1)"><g><path fill="none" stroke="none"/><text fill="#000000" stroke="none" font-family="Arial" font-size="13px" font-style="normal" font-weight="bold" text-decoration="none" x="355.7109375" y="265.5">Gestion Joueurs</text></g></g><g transform="translate(-14,-22) scale(1,1)"><path fill="#C0C0C0" stroke="none" d="M 335 379 C 335 363.5360256 370.1456432 351 413.5 351 C 456.8543568 351 492 363.5360256 492 379 C 492 394.4639744 456.8543568 407 413.5 407 C 370.1456432 407 335 394.4639744 335 379 Z" opacity="0.2"/></g><g transform="translate(-14,-22) scale(1,1)"><path fill="#ffffff" stroke="none" d="M 328 372 C 328 356.5360256 363.1456432 344 406.5 344 C 449.8543568 344 485 356.5360256 485 372 C 485 387.4639744 449.8543568 400 406.5 400 C 363.1456432 400 328 387.4639744 328 372 Z"/></g><g transform="translate(-14,-22) scale(1,1)"><path fill="none" stroke="#000000" d="M 328 372 C 328 356.5360256 363.1456432 344 406.5 344 C 449.8543568 344 485 356.5360256 485 372 C 485 387.4639744 449.8543568 400 406.5 400 C 363.1456432 400 328 387.4639744 328 372 Z" stroke-miterlimit="10"/></g><g transform="translate(-14,-22) scale(1,1)"><g><path fill="none" stroke="none"/><text fill="#000000" stroke="none" font-family="Arial" font-size="13px" font-style="normal" font-weight="bold" text-decoration="none" x="355.328369140625" y="377.5">Gestion Terrains</text></g></g><g transform="translate(-14,-22) scale(1,1)"><path fill="#C0C0C0" stroke="none" d="M 343 691 C 343 675.5360256 373.4446336 663 411 663 C 448.5553664 663 479 675.5360256 479 691 C 479 706.4639744 448.5553664 719 411 719 C 373.4446336 719 343 706.4639744 343 691 Z" opacity="0.2"/></g><g transform="translate(-14,-22) scale(1,1)"><path fill="#ffffff" stroke="none" d="M 336 684 C 336 668.5360256 366.4446336 656 404 656 C 441.5553664 656 472 668.5360256 472 684 C 472 699.4639744 441.5553664 712 404 712 C 366.4446336 712 336 699.4639744 336 684 Z"/></g><g transform="translate(-14,-22) scale(1,1)"><path fill="none" stroke="#000000" d="M 336 684 C 336 668.5360256 366.4446336 656 404 656 C 441.5553664 656 472 668.5360256 472 684 C 472 699.4639744 441.5553664 712 404 712 C 366.4446336 712 336 699.4639744 336 684 Z" stroke-miterlimit="10"/></g><g transform="translate(-14,-22) scale(1,1)"><g><path fill="none" stroke="none"/><text fill="#000000" stroke="none" font-family="Arial" font-size="13px" font-style="normal" font-weight="bold" text-decoration="none" x="364.28271484375" y="689.5">Consultation</text></g></g><g transform="translate(-14,-22) scale(1,1)"><path fill="#C0C0C0" stroke="none" d="M 343 818.5 C 343 803.312168 373.220776 791 410.5 791 C 447.779224 791 478 803.312168 478 818.5 C 478 833.687832 447.779224 846 410.5 846 C 373.220776 846 343 833.687832 343 818.5 Z" opacity="0.2"/></g><g transform="translate(-14,-22) scale(1,1)"><path fill="#ffffff" stroke="none" d="M 336 811.5 C 336 796.312168 366.220776 784 403.5 784 C 440.779224 784 471 796.312168 471 811.5 C 471 826.687832 440.779224 839 403.5 839 C 366.220776 839 336 826.687832 336 811.5 Z"/></g><g transform="translate(-14,-22) scale(1,1)"><path fill="none" stroke="#000000" d="M 336 811.5 C 336 796.312168 366.220776 784 403.5 784 C 440.779224 784 471 796.312168 471 811.5 C 471 826.687832 440.779224 839 403.5 839 C 366.220776 839 336 826.687832 336 811.5 Z" stroke-miterlimit="10"/></g><g transform="translate(-14,-22) scale(1,1)"><g><path fill="none" stroke="none"/><text fill="#000000" stroke="none" font-family="Arial" font-size="13px" font-style="normal" font-weight="bold" text-decoration="none" x="366.2900390625" y="817">Réservation</text></g></g><g transform="translate(-14,-22) scale(1,1)"><path fill="#C0C0C0" stroke="none" d="M 231 462.5 C 231 445.1030288 255.8481936 431 286.5 431 C 317.1518064 431 342 445.1030288 342 462.5 C 342 479.8969712 317.1518064 494 286.5 494 C 255.8481936 494 231 479.8969712 231 462.5 Z" opacity="0.2"/></g><g transform="translate(-14,-22) scale(1,1)"><path fill="#ffffff" stroke="none" d="M 224 455.5 C 224 438.1030288 248.8481936 424 279.5 424 C 310.1518064 424 335 438.1030288 335 455.5 C 335 472.8969712 310.1518064 487 279.5 487 C 248.8481936 487 224 472.8969712 224 455.5 Z"/></g><g transform="translate(-14,-22) scale(1,1)"><path fill="none" stroke="#000000" d="M 224 455.5 C 224 438.1030288 248.8481936 424 279.5 424 C 310.1518064 424 335 438.1030288 335 455.5 C 335 472.8969712 310.1518064 487 279.5 487 C 248.8481936 487 224 472.8969712 224 455.5 Z" stroke-miterlimit="10"/></g><g transform="translate(-14,-22) scale(1,1)"><g><path fill="none" stroke="none"/><text fill="#000000" stroke="none" font-family="Arial" font-size="13px" font-style="normal" font-weight="bold" text-decoration="none" x="245.917724609375" y="461">Connexion</text></g></g><g transform="translate(-14,-22) scale(1,1)"><path fill="#C0C0C0" stroke="none" d="M 231 554.5 C 231 539.312168 254.9527632 527 284.5 527 C 314.0472368 527 338 539.312168 338 554.5 C 338 569.687832 314.0472368 582 284.5 582 C 254.9527632 582 231 569.687832 231 554.5 Z" opacity="0.2"/></g><g transform="translate(-14,-22) scale(1,1)"><path fill="#ffffff" stroke="none" d="M 224 547.5 C 224 532.312168 247.9527632 520 277.5 520 C 307.0472368 520 331 532.312168 331 547.5 C 331 562.687832 307.0472368 575 277.5 575 C 247.9527632 575 224 562.687832 224 547.5 Z"/></g><g transform="translate(-14,-22) scale(1,1)"><path fill="none" stroke="#000000" d="M 224 547.5 C 224 532.312168 247.9527632 520 277.5 520 C 307.0472368 520 331 532.312168 331 547.5 C 331 562.687832 307.0472368 575 277.5 575 C 247.9527632 575 224 562.687832 224 547.5 Z" stroke-miterlimit="10"/></g><g transform="translate(-14,-22) scale(1,1)"><g><path fill="none" stroke="none"/><text fill="#000000" stroke="none" font-family="Arial" font-size="13px" font-style="normal" font-weight="bold" text-decoration="none" x="244.2763671875" y="553">Inscription</text></g></g><g transform="translate(-14,-22) scale(1,1)"><path fill="none" stroke="#000000" d="M 126 342 L 236 423" stroke-miterlimit="10"/></g><g transform="translate(-14,-22) scale(1,1)"><path fill="none" stroke="#000000" d="M 101 620 L 223 569" stroke-miterlimit="10"/></g><g transform="translate(-14,-22) scale(1,1)"><path fill="none" stroke="#000000" d="M 101 608 L 241 488" stroke-miterlimit="10"/></g><g transform="translate(-14,-22) scale(1,1)"><path fill="none" stroke="#000000" d="M 108 344 L 254 519" stroke-miterlimit="10"/></g><g transform="translate(-14,-22) scale(1,1)"><path fill="none" stroke="#000000" d="M 126 272 L 359 137" stroke-miterlimit="10"/></g><g transform="translate(-14,-22) scale(1,1)"><path fill="none" stroke="#000000" d="M 126 296 L 327 270" stroke-miterlimit="10"/></g><g transform="translate(-14,-22) scale(1,1)"><path fill="none" stroke="#000000" d="M 126 314 L 327 356" stroke-miterlimit="10"/></g><g transform="translate(-14,-22) scale(1,1)"><path fill="none" stroke="#000000" d="M 101 635 L 335 673" stroke-miterlimit="10"/></g><g transform="translate(-14,-22) scale(1,1)"><path fill="none" stroke="#000000" d="M 101 646 L 352 783" stroke-miterlimit="10"/></g><g transform="translate(-14,-22) scale(1,1)"><path fill="#C0C0C0" stroke="none" d="M 567 64 C 567 54.6111584 597.220776 47 634.5 47 C 671.779224 47 702 54.6111584 702 64 C 702 73.3888416 671.779224 81 634.5 81 C 597.220776 81 567 73.3888416 567 64 Z" opacity="0.2"/></g><g transform="translate(-14,-22) scale(1,1)"><path fill="#ffffff" stroke="none" d="M 560 57 C 560 47.6111584 590.220776 40 627.5 40 C 664.779224 40 695 47.6111584 695 57 C 695 66.3888416 664.779224 74 627.5 74 C 590.220776 74 560 66.3888416 560 57 Z"/></g><g transform="translate(-14,-22) scale(1,1)"><path fill="none" stroke="#000000" d="M 560 57 C 560 47.6111584 590.220776 40 627.5 40 C 664.779224 40 695 47.6111584 695 57 C 695 66.3888416 664.779224 74 627.5 74 C 590.220776 74 560 66.3888416 560 57 Z" stroke-miterlimit="10"/></g><g transform="translate(-14,-22) scale(1,1)"><g><path fill="none" stroke="none"/><text fill="#000000" stroke="none" font-family="Arial" font-size="13px" font-style="normal" font-weight="bold" text-decoration="none" x="584.16455078125" y="62.5">Ajouter Match</text></g></g><g transform="translate(-14,-22) scale(1,1)"><path fill="#C0C0C0" stroke="none" d="M 631 104 C 631 94.6111584 665.697928 87 708.5 87 C 751.302072 87 786 94.6111584 786 104 C 786 113.3888416 751.302072 121 708.5 121 C 665.697928 121 631 113.3888416 631 104 Z" opacity="0.2"/></g><g transform="translate(-14,-22) scale(1,1)"><path fill="#ffffff" stroke="none" d="M 624 97 C 624 87.6111584 658.697928 80 701.5 80 C 744.302072 80 779 87.6111584 779 97 C 779 106.3888416 744.302072 114 701.5 114 C 658.697928 114 624 106.3888416 624 97 Z"/></g><g transform="translate(-14,-22) scale(1,1)"><path fill="none" stroke="#000000" d="M 624 97 C 624 87.6111584 658.697928 80 701.5 80 C 744.302072 80 779 87.6111584 779 97 C 779 106.3888416 744.302072 114 701.5 114 C 658.697928 114 624 106.3888416 624 97 Z" stroke-miterlimit="10"/></g><g transform="translate(-14,-22) scale(1,1)"><g><path fill="none" stroke="none"/><text fill="#000000" stroke="none" font-family="Arial" font-size="13px" font-style="normal" font-weight="bold" text-decoration="none" x="651.299560546875" y="102.5">Ajouter Resultat</text></g></g><g transform="translate(-14,-22) scale(1,1)"><path fill="#C0C0C0" stroke="none" d="M 639 152 C 639 142.6111584 671.9070672 135 712.5 135 C 753.0929328 135 786 142.6111584 786 152 C 786 161.3888416 753.0929328 169 712.5 169 C 671.9070672 169 639 161.3888416 639 152 Z" opacity="0.2"/></g><g transform="translate(-14,-22) scale(1,1)"><path fill="#ffffff" stroke="none" d="M 632 145 C 632 135.6111584 664.9070672 128 705.5 128 C 746.0929328 128 779 135.6111584 779 145 C 779 154.3888416 746.0929328 162 705.5 162 C 664.9070672 162 632 154.3888416 632 145 Z"/></g><g transform="translate(-14,-22) scale(1,1)"><path fill="none" stroke="#000000" d="M 632 145 C 632 135.6111584 664.9070672 128 705.5 128 C 746.0929328 128 779 135.6111584 779 145 C 779 154.3888416 746.0929328 162 705.5 162 C 664.9070672 162 632 154.3888416 632 145 Z" stroke-miterlimit="10"/></g><g transform="translate(-14,-22) scale(1,1)"><g><path fill="none" stroke="none"/><text fill="#000000" stroke="none" font-family="Arial" font-size="13px" font-style="normal" font-weight="bold" text-decoration="none" x="657.83544921875" y="150.5">Ajouter Butteur</text></g></g><g transform="translate(-14,-22) scale(1,1)"><path fill="#C0C0C0" stroke="none" d="M 567 192 C 567 182.6111584 601.4740704 175 644 175 C 686.5259296 175 721 182.6111584 721 192 C 721 201.3888416 686.5259296 209 644 209 C 601.4740704 209 567 201.3888416 567 192 Z" opacity="0.2"/></g><g transform="translate(-14,-22) scale(1,1)"><path fill="#ffffff" stroke="none" d="M 560 185 C 560 175.6111584 594.4740704 168 637 168 C 679.5259296 168 714 175.6111584 714 185 C 714 194.3888416 679.5259296 202 637 202 C 594.4740704 202 560 194.3888416 560 185 Z"/></g><g transform="translate(-14,-22) scale(1,1)"><path fill="none" stroke="#000000" d="M 560 185 C 560 175.6111584 594.4740704 168 637 168 C 679.5259296 168 714 175.6111584 714 185 C 714 194.3888416 679.5259296 202 637 202 C 594.4740704 202 560 194.3888416 560 185 Z" stroke-miterlimit="10"/></g><g transform="translate(-14,-22) scale(1,1)"><g><path fill="none" stroke="none"/><text fill="#000000" stroke="none" font-family="Arial" font-size="13px" font-style="normal" font-weight="bold" text-decoration="none" x="587.148681640625" y="190.5">Ajouter Passeur</text></g></g><g transform="translate(-14,-22) scale(1,1)"><path fill="none" stroke="#000000" d="M 492 89 L 559 73" stroke-miterlimit="10"/></g><g transform="translate(-14,-22) scale(1,1)"><path fill="none" stroke="#000000" d="M 492 105 L 623 100" stroke-miterlimit="10"/></g><g transform="translate(-14,-22) scale(1,1)"><path fill="none" stroke="#000000" d="M 492 118 L 631 136" stroke-miterlimit="10"/></g><g transform="translate(-14,-22) scale(1,1)"><path fill="none" stroke="#000000" d="M 492 136 L 584 167" stroke-miterlimit="10"/></g><g transform="translate(-14,-22) scale(1,1)"><path fill="#C0C0C0" stroke="none" d="M 575 248 C 575 238.6111584 607.459352 231 647.5 231 C 687.540648 231 720 238.6111584 720 248 C 720 257.3888416 687.540648 265 647.5 265 C 607.459352 265 575 257.3888416 575 248 Z" opacity="0.2"/></g><g transform="translate(-14,-22) scale(1,1)"><path fill="#ffffff" stroke="none" d="M 568 241 C 568 231.6111584 600.459352 224 640.5 224 C 680.540648 224 713 231.6111584 713 241 C 713 250.3888416 680.540648 258 640.5 258 C 600.459352 258 568 250.3888416 568 241 Z"/></g><g transform="translate(-14,-22) scale(1,1)"><path fill="none" stroke="#000000" d="M 568 241 C 568 231.6111584 600.459352 224 640.5 224 C 680.540648 224 713 231.6111584 713 241 C 713 250.3888416 680.540648 258 640.5 258 C 600.459352 258 568 250.3888416 568 241 Z" stroke-miterlimit="10"/></g><g transform="translate(-14,-22) scale(1,1)"><g><path fill="none" stroke="none"/><text fill="#000000" stroke="none" font-family="Arial" font-size="13px" font-style="normal" font-weight="bold" text-decoration="none" x="593.552734375" y="246.5">ModifierJoueur</text></g></g><g transform="translate(-14,-22) scale(1,1)"><path fill="#C0C0C0" stroke="none" d="M 559 296 C 559 286.6111584 597.2796496 279 644.5 279 C 691.7203504 279 730 286.6111584 730 296 C 730 305.3888416 691.7203504 313 644.5 313 C 597.2796496 313 559 305.3888416 559 296 Z" opacity="0.2"/></g><g transform="translate(-14,-22) scale(1,1)"><path fill="#ffffff" stroke="none" d="M 552 289 C 552 279.6111584 590.2796496 272 637.5 272 C 684.7203504 272 723 279.6111584 723 289 C 723 298.3888416 684.7203504 306 637.5 306 C 590.2796496 306 552 298.3888416 552 289 Z"/></g><g transform="translate(-14,-22) scale(1,1)"><path fill="none" stroke="#000000" d="M 552 289 C 552 279.6111584 590.2796496 272 637.5 272 C 684.7203504 272 723 279.6111584 723 289 C 723 298.3888416 684.7203504 306 637.5 306 C 590.2796496 306 552 298.3888416 552 289 Z" stroke-miterlimit="10"/></g><g transform="translate(-14,-22) scale(1,1)"><g><path fill="none" stroke="none"/><text fill="#000000" stroke="none" font-family="Arial" font-size="13px" font-style="normal" font-weight="bold" text-decoration="none" x="581.516845703125" y="294.5">Supprimer Joueur</text></g></g><g transform="translate(-14,-22) scale(1,1)"><path fill="#C0C0C0" stroke="none" d="M 583 344 C 583 334.6111584 615.0116368 327 654.5 327 C 693.9883632 327 726 334.6111584 726 344 C 726 353.3888416 693.9883632 361 654.5 361 C 615.0116368 361 583 353.3888416 583 344 Z" opacity="0.2"/></g><g transform="translate(-14,-22) scale(1,1)"><path fill="#ffffff" stroke="none" d="M 576 337 C 576 327.6111584 608.0116368 320 647.5 320 C 686.9883632 320 719 327.6111584 719 337 C 719 346.3888416 686.9883632 354 647.5 354 C 608.0116368 354 576 346.3888416 576 337 Z"/></g><g transform="translate(-14,-22) scale(1,1)"><path fill="none" stroke="#000000" d="M 576 337 C 576 327.6111584 608.0116368 320 647.5 320 C 686.9883632 320 719 327.6111584 719 337 C 719 346.3888416 686.9883632 354 647.5 354 C 608.0116368 354 576 346.3888416 576 337 Z" stroke-miterlimit="10"/></g><g transform="translate(-14,-22) scale(1,1)"><g><path fill="none" stroke="none"/><text fill="#000000" stroke="none" font-family="Arial" font-size="13px" font-style="normal" font-weight="bold" text-decoration="none" x="601.390625" y="342.5">Ajouter Terrain</text></g></g><g transform="translate(-14,-22) scale(1,1)"><path fill="#C0C0C0" stroke="none" d="M 631 392 C 631 382.6111584 664.57864 375 706 375 C 747.42136 375 781 382.6111584 781 392 C 781 401.3888416 747.42136 409 706 409 C 664.57864 409 631 401.3888416 631 392 Z" opacity="0.2"/></g><g transform="translate(-14,-22) scale(1,1)"><path fill="#ffffff" stroke="none" d="M 624 385 C 624 375.6111584 657.57864 368 699 368 C 740.42136 368 774 375.6111584 774 385 C 774 394.3888416 740.42136 402 699 402 C 657.57864 402 624 394.3888416 624 385 Z"/></g><g transform="translate(-14,-22) scale(1,1)"><path fill="none" stroke="#000000" d="M 624 385 C 624 375.6111584 657.57864 368 699 368 C 740.42136 368 774 375.6111584 774 385 C 774 394.3888416 740.42136 402 699 402 C 657.57864 402 624 394.3888416 624 385 Z" stroke-miterlimit="10"/></g><g transform="translate(-14,-22) scale(1,1)"><g><path fill="none" stroke="none"/><text fill="#000000" stroke="none" font-family="Arial" font-size="13px" font-style="normal" font-weight="bold" text-decoration="none" x="650.3642578125" y="390.5">Modifier Terrain</text></g></g><g transform="translate(-14,-22) scale(1,1)"><path fill="#C0C0C0" stroke="none" d="M 575 440 C 575 430.6111584 613.2796496 423 660.5 423 C 707.7203504 423 746 430.6111584 746 440 C 746 449.3888416 707.7203504 457 660.5 457 C 613.2796496 457 575 449.3888416 575 440 Z" opacity="0.2"/></g><g transform="translate(-14,-22) scale(1,1)"><path fill="#ffffff" stroke="none" d="M 568 433 C 568 423.6111584 606.2796496 416 653.5 416 C 700.7203504 416 739 423.6111584 739 433 C 739 442.3888416 700.7203504 450 653.5 450 C 606.2796496 450 568 442.3888416 568 433 Z"/></g><g transform="translate(-14,-22) scale(1,1)"><path fill="none" stroke="#000000" d="M 568 433 C 568 423.6111584 606.2796496 416 653.5 416 C 700.7203504 416 739 423.6111584 739 433 C 739 442.3888416 700.7203504 450 653.5 450 C 606.2796496 450 568 442.3888416 568 433 Z" stroke-miterlimit="10"/></g><g transform="translate(-14,-22) scale(1,1)"><g><path fill="none" stroke="none"/><text fill="#000000" stroke="none" font-family="Arial" font-size="13px" font-style="normal" font-weight="bold" text-decoration="none" x="597.63427734375" y="438.5">Supprimer Terrain</text></g></g><g transform="translate(-14,-22) scale(1,1)"><path fill="none" stroke="#000000" d="M 487 253 L 567 247" stroke-miterlimit="10"/></g><g transform="translate(-14,-22) scale(1,1)"><path fill="none" stroke="#000000" d="M 487 270 L 551 278" stroke-miterlimit="10"/></g><g transform="translate(-14,-22) scale(1,1)"><path fill="none" stroke="#000000" d="M 486 360 L 575 347" stroke-miterlimit="10"/></g><g transform="translate(-14,-22) scale(1,1)"><path fill="none" stroke="#000000" d="M 486 376 L 623 382" stroke-miterlimit="10"/></g><g transform="translate(-14,-22) scale(1,1)"><path fill="none" stroke="#000000" d="M 486 392 L 580 415" stroke-miterlimit="10"/></g><g transform="translate(-14,-22) scale(1,1)"><path fill="#C0C0C0" stroke="none" d="M 567 608 C 567 598.6111584 614.4578112 591 673 591 C 731.5421888 591 779 598.6111584 779 608 C 779 617.3888416 731.5421888 625 673 625 C 614.4578112 625 567 617.3888416 567 608 Z" opacity="0.2"/></g><g transform="translate(-14,-22) scale(1,1)"><path fill="#ffffff" stroke="none" d="M 560 601 C 560 591.6111584 607.4578112 584 666 584 C 724.5421888 584 772 591.6111584 772 601 C 772 610.3888416 724.5421888 618 666 618 C 607.4578112 618 560 610.3888416 560 601 Z"/></g><g transform="translate(-14,-22) scale(1,1)"><path fill="none" stroke="#000000" d="M 560 601 C 560 591.6111584 607.4578112 584 666 584 C 724.5421888 584 772 591.6111584 772 601 C 772 610.3888416 724.5421888 618 666 618 C 607.4578112 618 560 610.3888416 560 601 Z" stroke-miterlimit="10"/></g><g transform="translate(-14,-22) scale(1,1)"><g><path fill="none" stroke="none"/><text fill="#000000" stroke="none" font-family="Arial" font-size="13px" font-style="normal" font-weight="bold" text-decoration="none" x="595.569580078125" y="606.5">Consulter liste joueurs</text></g></g><g transform="translate(-14,-22) scale(1,1)"><path fill="#C0C0C0" stroke="none" d="M 567 672 C 567 662.6111584 614.6816688 655 673.5 655 C 732.3183312 655 780 662.6111584 780 672 C 780 681.3888416 732.3183312 689 673.5 689 C 614.6816688 689 567 681.3888416 567 672 Z" opacity="0.2"/></g><g transform="translate(-14,-22) scale(1,1)"><path fill="#ffffff" stroke="none" d="M 560 665 C 560 655.6111584 607.6816688 648 666.5 648 C 725.3183312 648 773 655.6111584 773 665 C 773 674.3888416 725.3183312 682 666.5 682 C 607.6816688 682 560 674.3888416 560 665 Z"/></g><g transform="translate(-14,-22) scale(1,1)"><path fill="none" stroke="#000000" d="M 560 665 C 560 655.6111584 607.6816688 648 666.5 648 C 725.3183312 648 773 655.6111584 773 665 C 773 674.3888416 725.3183312 682 666.5 682 C 607.6816688 682 560 674.3888416 560 665 Z" stroke-miterlimit="10"/></g><g transform="translate(-14,-22) scale(1,1)"><g><path fill="none" stroke="none"/><text fill="#000000" stroke="none" font-family="Arial" font-size="13px" font-style="normal" font-weight="bold" text-decoration="none" x="595.701416015625" y="670.5">Consulter liste terrains</text></g></g><g transform="translate(-14,-22) scale(1,1)"><path fill="#C0C0C0" stroke="none" d="M 599 816 C 599 806.6111584 633.4740704 799 676 799 C 718.5259296 799 753 806.6111584 753 816 C 753 825.3888416 718.5259296 833 676 833 C 633.4740704 833 599 825.3888416 599 816 Z" opacity="0.2"/></g><g transform="translate(-14,-22) scale(1,1)"><path fill="#ffffff" stroke="none" d="M 592 809 C 592 799.6111584 626.4740704 792 669 792 C 711.5259296 792 746 799.6111584 746 809 C 746 818.3888416 711.5259296 826 669 826 C 626.4740704 826 592 818.3888416 592 809 Z"/></g><g transform="translate(-14,-22) scale(1,1)"><path fill="none" stroke="#000000" d="M 592 809 C 592 799.6111584 626.4740704 792 669 792 C 711.5259296 792 746 799.6111584 746 809 C 746 818.3888416 711.5259296 826 669 826 C 626.4740704 826 592 818.3888416 592 809 Z" stroke-miterlimit="10"/></g><g transform="translate(-14,-22) scale(1,1)"><g><path fill="none" stroke="none"/><text fill="#000000" stroke="none" font-family="Arial" font-size="13px" font-style="normal" font-weight="bold" text-decoration="none" x="619.135986328125" y="814.5">Resérver terrain</text></g></g><g transform="translate(-14,-22) scale(1,1)"><path fill="none" stroke="#000000" d="M 473 662 L 609 619" stroke-miterlimit="10"/></g><g transform="translate(-14,-22) scale(1,1)"><path fill="none" stroke="#000000" d="M 473 679 L 559 673" stroke-miterlimit="10"/></g><g transform="translate(-14,-22) scale(1,1)"><path fill="none" stroke="#000000" d="M 472 810 L 591 810" stroke-miterlimit="10"/></g><g transform="translate(-14,-22) scale(1,1)"><path fill="#C0C0C0" stroke="none" d="M 567 736 C 567 726.6111584 615.3532416 719 675 719 C 734.6467584 719 783 726.6111584 783 736 C 783 745.3888416 734.6467584 753 675 753 C 615.3532416 753 567 745.3888416 567 736 Z" opacity="0.2"/></g><g transform="translate(-14,-22) scale(1,1)"><path fill="#ffffff" stroke="none" d="M 560 729 C 560 719.6111584 608.3532416 712 668 712 C 727.6467584 712 776 719.6111584 776 729 C 776 738.3888416 727.6467584 746 668 746 C 608.3532416 746 560 738.3888416 560 729 Z"/></g><g transform="translate(-14,-22) scale(1,1)"><path fill="none" stroke="#000000" d="M 560 729 C 560 719.6111584 608.3532416 712 668 712 C 727.6467584 712 776 719.6111584 776 729 C 776 738.3888416 727.6467584 746 668 746 C 608.3532416 746 560 738.3888416 560 729 Z" stroke-miterlimit="10"/></g><g transform="translate(-14,-22) scale(1,1)"><g><path fill="none" stroke="none"/><text fill="#000000" stroke="none" font-family="Arial" font-size="13px" font-style="normal" font-weight="bold" text-decoration="none" x="608.779541015625" y="734.5">Consulter planning</text></g></g><g transform="translate(-14,-22) scale(1,1)"><path fill="none" stroke="#000000" d="M 473 696 L 562 711" stroke-miterlimit="10"/></g></g></svg>